# xmcd
#
# Track frame offsets:
#  150
#  31124
#  55539
#  90393
#  149269
#  183625
#  214278
#  230707
#  248128
#  265974
#
# Disc length: 3940 seconds
#
# Revision: 0
# Processed by: cddbd v1.5.2PL0 Copyright (c) Steve Scherf et al.
# Submitted via: Collectorz.com_Music_Collector 6.11
#
DISCID=890f620a
DTITLE=Eric Clapton - Lille Zenith (2CDs) [CD1)
DYEAR=2006
DGENRE=Blues/Rock
TTITLE0=Pretending
TTITLE1=So Tired
TTITLE2=Got To Get Better In A Little While
TTITLE3=Old Love
TTITLE4=I Shot The Sheriff
TTITLE5=Anyday
TTITLE6=Back Home
TTITLE7=I Am Yours
TTITLE8=Nobody Knows You When You're Down And Out
TTITLE9=Running On Faith
EXTD=
EXTT0=
EXTT1=
EXTT2=
EXTT3=
EXTT4=
EXTT5=
EXTT6=
EXTT7=
EXTT8=
EXTT9=
PLAYORDER=
